<?xml version="1.0" encoding="UTF-8" standalone="no"?><!DOCTYPE svg PUBLIC "-//W3C//DTD SVG 1.1//EN" "http://www.w3.org/Graphics/SVG/1.1/DTD/svg11.dtd"><svg width="100%" height="100%" viewBox="0 0 453 311" version="1.1" xmlns="http://www.w3.org/2000/svg" xmlns:xlink="http://www.w3.org/1999/xlink" xml:space="preserve" style="fill-rule:evenodd;clip-rule:evenodd;stroke-linejoin:round;stroke-miterlimit:1.41421;"><g><path d="M226.823,130.75l-178.105,0l0,7.611l174.65,0l3.455,-7.611Z" style="fill:#fff;"/><path d="M206.093,192.364l-157.375,0l0,7.611l154.458,0l2.917,-7.611Z" style="fill:#fff;"/><path d="M450.904,308.043l-448.897,0l0,-306.036l448.897,0l0,306.036Zm-443.897,-301.036l0,296.036l438.897,0l0,-296.036l-438.897,0Z" style="fill:#ff679f;"/><path d="M232.197,138.483l-10.748,0l2.348,-7.678l8.4,0c0,2.559 0,5.118 0,7.678Z" style="fill:#ff679f;fill-rule:nonzero;"/><path d="M210.61,200.12l-8.233,0l2.851,-7.678l5.382,0c0,2.559 0,5.119 0,7.678Z" style="fill:#ff679f;fill-rule:nonzero;"/><rect x="232.197" y="138.483" width="10.749" height="7.678" style="fill:#ff679f;fill-rule:nonzero;"/><rect x="210.61" y="200.12" width="10.749" height="7.678" style="fill:#ff679f;fill-rule:nonzero;"/><rect x="242.946" y="146.16" width="10.749" height="7.678" style="fill:#ff679f;fill-rule:nonzero;"/><rect x="221.358" y="200.155" width="10.749" height="7.678" style="fill:#ff679f;fill-rule:nonzero;"/><rect x="232.114" y="200.12" width="10.749" height="7.678" style="fill:#ff679f;fill-rule:nonzero;"/><rect x="242.883" y="192.478" width="10.749" height="7.678" style="fill:#ff679f;fill-rule:nonzero;"/><rect x="253.632" y="200.155" width="10.749" height="7.678" style="fill:#ff679f;fill-rule:nonzero;"/><rect x="253.632" y="207.833" width="10.749" height="7.678" style="fill:#ff679f;fill-rule:nonzero;"/><rect x="253.632" y="215.51" width="10.749" height="7.678" style="fill:#ff679f;fill-rule:nonzero;"/><rect x="264.381" y="207.798" width="10.749" height="7.678" style="fill:#ff679f;fill-rule:nonzero;"/><rect x="275.129" y="200.12" width="10.749" height="7.678" style="fill:#ff679f;fill-rule:nonzero;"/><rect x="285.878" y="207.833" width="10.749" height="7.678" style="fill:#ff679f;fill-rule:nonzero;"/><rect x="296.627" y="215.511" width="10.749" height="7.678" style="fill:#ff679f;fill-rule:nonzero;"/><rect x="296.627" y="223.188" width="10.749" height="7.678" style="fill:#ff679f;fill-rule:nonzero;"/><rect x="307.375" y="230.723" width="10.749" height="7.678" style="fill:#ff679f;fill-rule:nonzero;"/><rect x="318.124" y="223.045" width="10.749" height="7.678" style="fill:#ff679f;fill-rule:nonzero;"/><rect x="318.124" y="207.69" width="10.749" height="7.678" style="fill:#ff679f;fill-rule:nonzero;"/><rect x="318.124" y="215.367" width="10.749" height="7.678" style="fill:#ff679f;fill-rule:nonzero;"/><rect x="318.124" y="200.012" width="10.749" height="7.678" style="fill:#ff679f;fill-rule:nonzero;"/><rect x="318.124" y="192.334" width="10.749" height="7.678" style="fill:#ff679f;fill-rule:nonzero;"/><rect x="328.873" y="184.657" width="10.749" height="7.678" style="fill:#ff679f;fill-rule:nonzero;"/><rect x="339.621" y="223.045" width="10.749" height="7.678" style="fill:#ff679f;fill-rule:nonzero;"/><rect x="339.621" y="207.69" width="10.749" height="7.678" style="fill:#ff679f;fill-rule:nonzero;"/><rect x="339.621" y="215.367" width="10.749" height="7.678" style="fill:#ff679f;fill-rule:nonzero;"/><rect x="339.621" y="200.012" width="10.749" height="7.678" style="fill:#ff679f;fill-rule:nonzero;"/><rect x="339.621" y="192.334" width="10.749" height="7.678" style="fill:#ff679f;fill-rule:nonzero;"/><rect x="350.37" y="230.723" width="10.749" height="7.678" style="fill:#ff679f;fill-rule:nonzero;"/><rect x="361.119" y="223.045" width="10.749" height="7.678" style="fill:#ff679f;fill-rule:nonzero;"/><rect x="361.119" y="215.367" width="10.749" height="7.678" style="fill:#ff679f;fill-rule:nonzero;"/><rect x="361.119" y="207.69" width="10.749" height="7.678" style="fill:#ff679f;fill-rule:nonzero;"/><rect x="371.867" y="200.012" width="10.749" height="7.678" style="fill:#ff679f;fill-rule:nonzero;"/><rect x="382.616" y="192.334" width="10.749" height="7.678" style="fill:#ff679f;fill-rule:nonzero;"/><rect x="286.139" y="100.095" width="10.749" height="7.678" style="fill:#ff679f;fill-rule:nonzero;"/><rect x="296.888" y="107.772" width="10.749" height="7.678" style="fill:#ff679f;fill-rule:nonzero;"/><rect x="275.518" y="107.772" width="10.749" height="7.678" style="fill:#ff679f;fill-rule:nonzero;"/><rect x="296.939" y="115.45" width="10.749" height="7.678" style="fill:#ff679f;fill-rule:nonzero;"/><rect x="275.467" y="115.45" width="10.749" height="7.678" style="fill:#ff679f;fill-rule:nonzero;"/><rect x="307.688" y="123.127" width="10.749" height="7.678" style="fill:#ff679f;fill-rule:nonzero;"/><rect x="264.719" y="123.127" width="10.749" height="7.678" style="fill:#ff679f;fill-rule:nonzero;"/><rect x="318.436" y="130.84" width="10.749" height="7.678" style="fill:#ff679f;fill-rule:nonzero;"/><rect x="253.97" y="130.84" width="10.749" height="7.678" style="fill:#ff679f;fill-rule:nonzero;"/><rect x="318.436" y="138.518" width="10.749" height="7.678" style="fill:#ff679f;fill-rule:nonzero;"/><rect x="253.97" y="138.518" width="10.749" height="7.678" style="fill:#ff679f;fill-rule:nonzero;"/><rect x="329.134" y="146.195" width="10.749" height="7.678" style="fill:#ff679f;fill-rule:nonzero;"/><rect x="339.751" y="115.485" width="10.749" height="7.678" style="fill:#ff679f;fill-rule:nonzero;"/><rect x="339.751" y="138.518" width="10.749" height="7.678" style="fill:#ff679f;fill-rule:nonzero;"/><rect x="339.751" y="130.84" width="10.749" height="7.678" style="fill:#ff679f;fill-rule:nonzero;"/><rect x="339.751" y="123.163" width="10.749" height="7.678" style="fill:#ff679f;fill-rule:nonzero;"/><rect x="350.5" y="123.163" width="10.749" height="7.678" style="fill:#ff679f;fill-rule:nonzero;"/><rect x="361.249" y="130.84" width="10.749" height="7.678" style="fill:#ff679f;fill-rule:nonzero;"/><rect x="371.997" y="138.518" width="10.749" height="7.678" style="fill:#ff679f;fill-rule:nonzero;"/><rect x="382.746" y="138.518" width="10.749" height="7.678" style="fill:#ff679f;fill-rule:nonzero;"/><rect x="399.493" y="138.518" width="10.749" height="7.678" style="fill:#fff;fill-rule:nonzero;"/><rect x="399.493" y="192.334" width="10.749" height="7.678" style="fill:#fff;fill-rule:nonzero;"/><rect x="350.346" y="244.885" width="10.749" height="7.678" style="fill:#fff;fill-rule:nonzero;"/><rect x="275.094" y="184.885" width="10.749" height="7.678" style="fill:#fff;fill-rule:nonzero;"/><rect x="329.094" y="160.885" width="10.749" height="7.678" style="fill:#fff;fill-rule:nonzero;"/><rect x="286.094" y="86.208" width="10.749" height="7.678" style="fill:#fff;fill-rule:nonzero;"/><path d="M268.792,5.439l-98.319,301.104l-4.753,-1.552l98.319,-301.104l4.753,1.552Z" style="fill:#ff679f;"/><rect x="48.718" y="180.049" width="134.67" height="7.575" style="fill:#fff;"/><rect x="48.718" y="118.435" width="164.411" height="7.575" style="fill:#fff;"/><rect x="48.718" y="241.662" width="39.993" height="7.575" style="fill:#fff;"/><rect x="48.718" y="167.733" width="79.985" height="7.575" style="fill:#fff;"/><rect x="48.718" y="106.119" width="90.762" height="7.575" style="fill:#fff;"/><rect x="48.718" y="69.172" width="111.868" height="7.575" style="fill:#fff;"/><rect x="48.718" y="229.347" width="24.821" height="7.575" style="fill:#fff;"/><rect x="48.718" y="155.417" width="114.763" height="7.575" style="fill:#fff;"/><rect x="48.718" y="93.803" width="155.62" height="7.575" style="fill:#fff;"/><rect x="48.718" y="217.031" width="121.479" height="7.575" style="fill:#fff;"/><rect x="48.718" y="143.101" width="61.038" height="7.575" style="fill:#fff;"/><rect x="48.718" y="81.488" width="61.038" height="7.575" style="fill:#fff;"/><rect x="48.718" y="204.715" width="100.852" height="7.575" style="fill:#fff;"/></g></svg>