<?xml version="1.0" encoding="UTF-8" standalone="no"?><!DOCTYPE svg PUBLIC "-//W3C//DTD SVG 1.1//EN" "http://www.w3.org/Graphics/SVG/1.1/DTD/svg11.dtd"><svg width="100%" height="100%" viewBox="0 0 308 137" version="1.1" xmlns="http://www.w3.org/2000/svg" xmlns:xlink="http://www.w3.org/1999/xlink" xml:space="preserve" style="fill-rule:evenodd;clip-rule:evenodd;stroke-linejoin:round;stroke-miterlimit:1.41421;"><g><path d="M64.62,83.883c-7.76,0 -13.73,3.278 -17.705,8.443c-3.377,-5.463 -9.338,-8.443 -16.296,-8.443c-6.467,0 -11.342,2.285 -14.724,6.059l0,-4.568l-15.895,0l0,49.896l15.895,0l0,-24.457c0,-8.351 3.78,-12.626 9.55,-12.626c4.776,0 8.457,3.579 8.457,9.246l0,27.837l15.894,0l0,-24.457c0,-8.351 3.88,-12.626 9.75,-12.626c4.676,0 8.357,3.579 8.357,9.246l0,27.837l15.795,0l0,-31.217c0,-12.124 -8.444,-20.17 -19.078,-20.17Z" style="fill:#fff;fill-rule:nonzero;"/><path d="M118.898,84.082c-15.115,0 -27.632,10.529 -27.632,26.24c0,15.811 12.517,26.34 27.632,26.34c14.817,0 27.334,-10.529 27.334,-26.34c0,-15.711 -12.517,-26.24 -27.334,-26.24Zm0,39.171c-6.465,0 -12.334,-5.073 -12.334,-12.931c0,-7.758 5.869,-12.93 12.334,-12.93c6.167,0 12.036,5.172 12.036,12.93c0,7.858 -5.869,12.931 -12.036,12.931Z" style="fill:#fff;fill-rule:nonzero;"/><path d="M206.976,63.701l-15.894,0l0,25.645c-3.879,-3.476 -9.052,-5.463 -15.517,-5.463c-13.224,0 -24.35,10.728 -24.35,26.439c0,15.811 11.126,26.439 24.35,26.439c6.465,0 11.638,-1.986 15.517,-5.463l0,3.972l15.894,0l0,-71.569Zm-28.129,59.552c-6.963,0 -12.036,-5.172 -12.036,-12.931c0,-7.659 5.073,-12.93 12.036,-12.93c6.466,0 12.235,5.271 12.235,12.93c0,7.759 -5.769,12.931 -12.235,12.931Z" style="fill:#fff;fill-rule:nonzero;"/><path d="M267.423,110.321c-0.298,-16.307 -11.632,-26.438 -25.75,-26.438c-14.511,0 -26.432,10.727 -26.432,26.438c0,15.813 11.921,26.44 26.333,26.44c11.433,0 20.48,-5.065 24.755,-15.6l-14.117,-2.886c-2.684,4.877 -6.959,5.773 -10.638,5.773c-5.369,0 -9.445,-3.683 -10.737,-9.656l36.586,0l0,-4.071Zm-25.75,-13.526c4.574,0 8.55,2.49 10.042,7.867l-20.58,0c1.491,-5.079 6.065,-7.867 10.538,-7.867Z" style="fill:#fff;fill-rule:nonzero;"/></g><path d="M262.237,30.45l0,15.225l15.225,0l0,-15.225l-15.225,0Zm30.45,-30.45l0,45.675l15.225,0l0,15.225l-15.225,0l0,15.225l-15.225,0l0,-15.225l-30.45,0l0,-30.45l15.225,0l0,-15.225l15.225,0l0,-15.225l15.225,0Z" style="fill:#ff679f;fill-rule:nonzero;"/></svg>