<?xml version="1.0" encoding="UTF-8" standalone="no"?><!DOCTYPE svg PUBLIC "-//W3C//DTD SVG 1.1//EN" "http://www.w3.org/Graphics/SVG/1.1/DTD/svg11.dtd"><svg width="100%" height="100%" viewBox="0 0 453 311" version="1.1" xmlns="http://www.w3.org/2000/svg" xmlns:xlink="http://www.w3.org/1999/xlink" xml:space="preserve" style="fill-rule:evenodd;clip-rule:evenodd;stroke-linejoin:round;stroke-miterlimit:1.41421;"><g><g><path d="M224.08,80.534l0.513,0.003l0.512,0.004l0.512,0.005l0.511,0.007l0.512,0.008l0.511,0.01l0.51,0.011l0.511,0.013l0.51,0.014l0.51,0.016l0.509,0.017l0.509,0.019l0.509,0.02l0.509,0.022l0.508,0.023l0.508,0.024l0.507,0.026l0.507,0.027l0.507,0.029l0.507,0.03l0.506,0.032l0.506,0.033l0.505,0.034l0.505,0.036l0.505,0.037l0.504,0.038l0.504,0.04l0.504,0.042l0.503,0.042l0.503,0.044l3.984,0.359l-0.628,6.972l-3.975,-0.358l-0.484,-0.043l-0.484,-0.041l-0.484,-0.039l-0.485,-0.039l-0.485,-0.037l-0.486,-0.035l-0.485,-0.035l-0.486,-0.033l-0.487,-0.031l-0.486,-0.031l-0.487,-0.029l-0.487,-0.027l-0.487,-0.027l-0.488,-0.024l-0.488,-0.024l-0.488,-0.022l-0.488,-0.021l-0.489,-0.019l-0.489,-0.018l-0.489,-0.017l-0.49,-0.015l-0.49,-0.013l-0.49,-0.013l-0.49,-0.011l-0.491,-0.009l-0.49,-0.008l-0.491,-0.007l-0.491,-0.005l-0.492,-0.003l-0.492,-0.003l-0.492,0l-0.509,0l-0.508,0.003l-0.508,0.004l-0.508,0.005l-0.508,0.007l-0.507,0.009l-0.507,0.01l-0.506,0.012l-0.507,0.013l-0.505,0.014l-0.506,0.016l-0.505,0.018l-0.505,0.019l-0.504,0.021l-0.505,0.022l-0.504,0.024l-0.503,0.025l-0.503,0.026l-0.503,0.029l-0.502,0.029l-0.502,0.031l-0.502,0.032l-0.501,0.034l-0.501,0.036l-0.5,0.036l-0.5,0.038l-0.5,0.04l-0.5,0.041l-0.499,0.042l-0.498,0.044l-0.498,0.045l-0.498,0.047l-0.497,0.048l-0.497,0.049l-0.497,0.05l-0.496,0.052l-0.496,0.054l-0.496,0.055l-0.494,0.056l-0.495,0.057l-0.494,0.059l-0.494,0.06l-0.493,0.061l-0.493,0.063l-0.493,0.064l-0.491,0.065l-0.492,0.067l-0.491,0.068l-0.491,0.069l-0.49,0.07l-0.49,0.072l-0.489,0.073l-0.489,0.074l-0.489,0.076l-0.488,0.076l-0.487,0.078l-0.487,0.08l-0.487,0.08l-0.486,0.082l-0.486,0.083l-0.485,0.084l-0.485,0.085l-0.485,0.086l-0.483,0.088l-0.484,0.089l-0.482,0.09l-0.483,0.091l-0.482,0.093l-0.481,0.093l-0.481,0.095l-0.48,0.096l-0.48,0.097l-0.48,0.098l-0.479,0.099l-0.478,0.101l-0.478,0.101l-0.477,0.103l-0.478,0.104l-0.476,0.104l-0.475,0.106l-0.476,0.107l-0.475,0.109l-0.474,0.109l-0.474,0.11l-0.473,0.111l-0.473,0.113l-0.472,0.113l-0.471,0.115l-0.471,0.115l-0.471,0.117l-0.47,0.118l-0.47,0.118l-0.468,0.12l-0.469,0.12l-0.467,0.122l-0.467,0.123l-0.467,0.123l-0.466,0.125l-0.466,0.126l-0.465,0.126l-0.464,0.128l-0.464,0.128l-0.463,0.13l-0.462,0.13l-0.462,0.132l-0.462,0.132l-0.461,0.133l-0.46,0.134l-0.459,0.135l-0.46,0.136l-0.458,0.137l-0.458,0.138l-0.457,0.139l-0.457,0.139l-0.456,0.141l-0.455,0.141l-0.455,0.143l-0.454,0.143l-0.453,0.144l-0.453,0.144l-0.452,0.146l-0.452,0.147l-0.451,0.147l-0.451,0.148l-0.449,0.149l-0.449,0.15l-0.449,0.15l-0.448,0.152l-0.447,0.152l-0.446,0.153l-0.446,0.154l-0.445,0.154l-0.445,0.156l-0.443,0.156l-0.444,0.156l-0.442,0.158l-0.442,0.158l-0.441,0.159l-0.44,0.16l-0.44,0.161l-0.44,0.161l-0.438,0.162l-0.438,0.163l-0.437,0.163l-0.436,0.164l-0.436,0.165l-0.435,0.166l-0.434,0.166l-0.433,0.167l-0.433,0.167l-0.432,0.168l-0.432,0.169l-0.431,0.17l-0.429,0.17l-0.429,0.17l-0.429,0.172l-0.428,0.172l-0.427,0.173l-0.426,0.173l-0.426,0.174l-0.425,0.174l-0.424,0.175l-0.423,0.176l-0.423,0.176l-0.422,0.177l-0.421,0.177l-0.42,0.178l-0.42,0.179l-0.419,0.179l-0.418,0.179l-0.417,0.18l-0.417,0.181l-0.416,0.181l-0.415,0.182l-0.414,0.182l-0.413,0.183l-0.413,0.183l-0.412,0.184l-0.411,0.184l-0.41,0.184l-0.41,0.186l-0.408,0.185l-0.408,0.186l-0.408,0.187l-0.406,0.187l-0.404,0.187l-0.81,0.376l-0.805,0.378l-0.802,0.38l-0.799,0.381l-0.796,0.383l-0.792,0.384l-0.789,0.386l-0.785,0.387l-0.782,0.388l-0.778,0.39l-0.775,0.391l-0.772,0.392l-0.768,0.394l-0.765,0.394l-0.761,0.396l-0.757,0.396l-0.754,0.398l-0.75,0.398l-0.747,0.399l-0.743,0.401l-0.739,0.4l-0.736,0.402l-0.732,0.402l-0.728,0.403l-0.724,0.403l-0.721,0.404l-0.717,0.405l-0.713,0.405l-0.709,0.405l-0.706,0.405l-0.701,0.406l-0.697,0.406l-0.694,0.406l-0.69,0.406l-0.685,0.406l-0.682,0.407l-0.678,0.406l-0.673,0.406l-0.67,0.406l-0.665,0.406l-0.662,0.406l-0.657,0.405l-0.653,0.405l-0.649,0.405l-0.645,0.404l-0.64,0.403l-0.637,0.403l-0.632,0.403l-0.627,0.402l-0.624,0.401l-0.619,0.401l-0.615,0.399l-0.61,0.399l-0.606,0.398l-0.602,0.397l-0.597,0.396l-0.593,0.395l-0.588,0.394l-0.584,0.393l-0.58,0.391l-0.574,0.391l-0.57,0.389l-0.566,0.387l-0.561,0.387l-0.557,0.385l-0.551,0.383l-0.548,0.382l-0.542,0.38l-0.538,0.379l-0.533,0.377l-0.528,0.375l-0.524,0.373l-0.518,0.372l-0.514,0.369l-0.509,0.368l-0.504,0.366l-0.5,0.364l-0.494,0.361l-0.49,0.36l-0.484,0.357l-0.48,0.355l-0.475,0.353l-0.469,0.35l-0.465,0.348l-0.459,0.345l-0.455,0.344l-0.449,0.34l-0.445,0.338l-0.439,0.335l-0.434,0.333l-0.429,0.33l-0.423,0.327l-0.418,0.324l-0.414,0.321l-0.408,0.319l-0.402,0.315l-0.398,0.312l-0.392,0.309l-0.386,0.307l-0.381,0.302l-0.376,0.3l-0.371,0.296l-0.365,0.293l-0.36,0.29l-0.353,0.285l-0.693,0.563l-0.669,0.547l-0.647,0.533l-0.625,0.517l-0.602,0.502l-0.58,0.486l-0.556,0.469l-0.533,0.453l-0.51,0.435l-0.486,0.418l-0.463,0.4l-0.439,0.381l-0.414,0.363l-0.391,0.343l-0.366,0.324l-0.342,0.304l-0.317,0.284l-0.292,0.262l-0.267,0.241l-0.242,0.22l-0.215,0.196l-0.358,0.33l-0.253,0.235l-0.148,0.139l-2.591,2.452l-4.811,-5.084l2.601,-2.462l0.172,-0.162l0.278,-0.258l0.38,-0.35l0.232,-0.211l0.255,-0.232l0.281,-0.254l0.306,-0.275l0.331,-0.296l0.356,-0.316l0.381,-0.337l0.405,-0.356l0.43,-0.376l0.453,-0.395l0.478,-0.413l0.502,-0.431l0.526,-0.449l0.549,-0.466l0.572,-0.483l0.596,-0.499l0.619,-0.516l0.641,-0.531l0.665,-0.547l0.687,-0.562l0.708,-0.575l0.364,-0.294l0.369,-0.297l0.374,-0.3l0.38,-0.304l0.385,-0.307l0.39,-0.31l0.396,-0.314l0.402,-0.316l0.407,-0.32l0.412,-0.323l0.417,-0.326l0.423,-0.329l0.428,-0.331l0.434,-0.335l0.439,-0.338l0.443,-0.34l0.45,-0.343l0.454,-0.345l0.46,-0.349l0.465,-0.35l0.469,-0.354l0.476,-0.356l0.48,-0.358l0.485,-0.36l0.49,-0.364l0.496,-0.365l0.5,-0.367l0.506,-0.37l0.51,-0.371l0.515,-0.374l0.521,-0.376l0.525,-0.378l0.53,-0.38l0.535,-0.381l0.54,-0.384l0.544,-0.385l0.55,-0.387l0.554,-0.388l0.559,-0.39l0.564,-0.392l0.569,-0.394l0.573,-0.394l0.578,-0.396l0.583,-0.398l0.587,-0.399l0.592,-0.4l0.597,-0.401l0.601,-0.403l0.606,-0.404l0.61,-0.404l0.615,-0.406l0.619,-0.407l0.624,-0.407l0.629,-0.409l0.632,-0.409l0.638,-0.41l0.641,-0.411l0.646,-0.411l0.651,-0.412l0.654,-0.413l0.659,-0.413l0.664,-0.414l0.667,-0.414l0.672,-0.414l0.677,-0.415l0.68,-0.415l0.685,-0.415l0.688,-0.415l0.693,-0.416l0.698,-0.415l0.701,-0.416l0.705,-0.415l0.71,-0.415l0.713,-0.416l0.718,-0.415l0.721,-0.415l0.726,-0.414l0.73,-0.414l0.733,-0.414l0.737,-0.413l0.742,-0.413l0.745,-0.413l0.749,-0.411l0.753,-0.412l0.757,-0.41l0.761,-0.41l0.765,-0.408l0.768,-0.408l0.772,-0.408l0.776,-0.406l0.779,-0.405l0.784,-0.404l0.787,-0.403l0.79,-0.402l0.794,-0.401l0.798,-0.399l0.802,-0.398l0.805,-0.397l0.808,-0.395l0.812,-0.394l0.816,-0.393l0.819,-0.391l0.823,-0.389l0.826,-0.388l0.828,-0.385l0.417,-0.193l0.417,-0.192l0.418,-0.191l0.419,-0.191l0.419,-0.19l0.42,-0.19l0.422,-0.19l0.422,-0.189l0.422,-0.189l0.424,-0.188l0.424,-0.187l0.426,-0.187l0.426,-0.187l0.427,-0.186l0.427,-0.185l0.429,-0.185l0.43,-0.185l0.43,-0.184l0.431,-0.183l0.431,-0.183l0.433,-0.182l0.433,-0.181l0.435,-0.182l0.435,-0.18l0.435,-0.18l0.437,-0.179l0.437,-0.179l0.439,-0.178l0.439,-0.177l0.44,-0.177l0.44,-0.176l0.441,-0.176l0.443,-0.175l0.442,-0.174l0.444,-0.174l0.444,-0.173l0.445,-0.172l0.446,-0.172l0.447,-0.17l0.447,-0.171l0.448,-0.169l0.449,-0.169l0.45,-0.168l0.451,-0.168l0.451,-0.166l0.452,-0.166l0.452,-0.166l0.454,-0.164l0.454,-0.164l0.455,-0.163l0.455,-0.162l0.457,-0.162l0.457,-0.16l0.457,-0.16l0.459,-0.159l0.459,-0.159l0.46,-0.158l0.461,-0.156l0.461,-0.156l0.462,-0.155l0.463,-0.155l0.463,-0.153l0.464,-0.153l0.465,-0.152l0.466,-0.151l0.466,-0.15l0.467,-0.149l0.468,-0.149l0.468,-0.147l0.469,-0.147l0.469,-0.146l0.471,-0.145l0.471,-0.143l0.471,-0.144l0.473,-0.142l0.473,-0.141l0.473,-0.14l0.475,-0.14l0.475,-0.138l0.475,-0.138l0.477,-0.136l0.476,-0.136l0.478,-0.135l0.478,-0.133l0.479,-0.133l0.48,-0.132l0.48,-0.131l0.481,-0.129l0.481,-0.129l0.482,-0.128l0.483,-0.126l0.483,-0.126l0.484,-0.125l0.485,-0.124l0.485,-0.122l0.485,-0.122l0.487,-0.12l0.487,-0.12l0.488,-0.118l0.488,-0.117l0.489,-0.117l0.489,-0.115l0.49,-0.114l0.491,-0.113l0.491,-0.112l0.492,-0.11l0.492,-0.11l0.493,-0.109l0.494,-0.107l0.494,-0.106l0.495,-0.105l0.495,-0.104l0.496,-0.103l0.496,-0.102l0.497,-0.1l0.498,-0.099l0.498,-0.098l0.498,-0.097l0.5,-0.096l0.499,-0.095l0.501,-0.093l0.501,-0.092l0.501,-0.091l0.502,-0.09l0.502,-0.088l0.503,-0.087l0.504,-0.086l0.504,-0.085l0.505,-0.083l0.505,-0.082l0.506,-0.081l0.506,-0.08l0.507,-0.078l0.507,-0.077l0.508,-0.076l0.508,-0.074l0.509,-0.073l0.509,-0.072l0.51,-0.071l0.51,-0.069l0.511,-0.068l0.511,-0.066l0.512,-0.065l0.512,-0.064l0.513,-0.062l0.513,-0.061l0.514,-0.06l0.515,-0.058l0.514,-0.057l0.515,-0.055l0.516,-0.054l0.516,-0.053l0.517,-0.051l0.517,-0.05l0.517,-0.048l0.518,-0.047l0.519,-0.046l0.518,-0.044l0.52,-0.042l0.519,-0.042l0.521,-0.039l0.52,-0.038l0.521,-0.037l0.522,-0.035l0.522,-0.034l0.522,-0.032l0.523,-0.031l0.523,-0.029l0.524,-0.028l0.524,-0.026l0.525,-0.025l0.524,-0.023l0.526,-0.021l0.526,-0.02l0.526,-0.019l0.526,-0.016l0.527,-0.016l0.528,-0.013l0.527,-0.013l0.529,-0.01l0.528,-0.009l0.529,-0.007l0.529,-0.006l0.53,-0.004l0.53,-0.002l0.53,-0.001l0.513,0Z" style="fill:#fff;"/><path d="M63.736,151.735l0.18,0.166l0.258,0.235l0.331,0.299l0.407,0.365l0.228,0.203l0.248,0.22l0.267,0.235l0.284,0.249l0.301,0.264l0.319,0.278l0.337,0.291l0.355,0.306l0.372,0.319l0.389,0.332l0.406,0.345l0.423,0.357l0.441,0.37l0.457,0.382l0.474,0.395l0.49,0.406l0.507,0.417l0.524,0.429l0.539,0.439l0.556,0.451l0.573,0.46l0.588,0.471l0.604,0.482l0.62,0.49l0.635,0.501l0.651,0.509l0.667,0.519l0.682,0.528l0.697,0.536l0.713,0.544l0.727,0.552l0.743,0.56l0.758,0.569l0.384,0.286l0.387,0.288l0.392,0.291l0.395,0.292l0.399,0.293l0.403,0.296l0.406,0.297l0.409,0.298l0.414,0.301l0.416,0.301l0.421,0.304l0.424,0.305l0.427,0.306l0.431,0.308l0.435,0.309l0.438,0.31l0.441,0.312l0.445,0.313l0.449,0.315l0.451,0.316l0.455,0.316l0.459,0.319l0.462,0.319l0.466,0.321l0.468,0.321l0.473,0.323l0.475,0.323l0.479,0.325l0.482,0.325l0.486,0.327l0.488,0.328l0.493,0.328l0.495,0.329l0.498,0.331l0.502,0.331l0.505,0.331l0.509,0.333l0.511,0.333l0.515,0.334l0.518,0.334l0.521,0.335l0.524,0.336l0.527,0.336l0.531,0.337l0.533,0.337l0.536,0.338l0.54,0.338l0.543,0.339l0.546,0.339l0.549,0.339l0.552,0.34l0.554,0.339l0.558,0.341l0.561,0.34l0.564,0.341l0.567,0.34l0.57,0.341l0.573,0.341l0.575,0.341l0.579,0.341l0.581,0.341l0.585,0.341l0.587,0.342l0.59,0.341l0.593,0.34l0.596,0.341l0.598,0.341l0.602,0.34l0.604,0.34l0.607,0.34l0.609,0.34l0.613,0.339l0.615,0.339l0.618,0.338l0.621,0.338l0.623,0.338l0.626,0.337l0.629,0.337l0.631,0.336l0.634,0.336l0.637,0.335l0.639,0.334l0.642,0.334l0.644,0.333l0.647,0.332l0.65,0.332l0.652,0.331l0.654,0.33l0.658,0.329l0.659,0.328l0.662,0.328l0.665,0.326l0.667,0.326l0.67,0.324l0.672,0.324l0.675,0.323l0.676,0.321l0.68,0.32l0.681,0.32l0.685,0.318l0.686,0.316l0.689,0.316l0.691,0.314l0.693,0.314l0.696,0.311l0.698,0.311l0.7,0.309l0.703,0.307l0.705,0.307l0.707,0.304l0.71,0.304l0.711,0.301l0.714,0.3l0.716,0.299l0.718,0.297l0.72,0.295l0.723,0.294l0.724,0.292l0.727,0.29l0.729,0.289l0.731,0.286l0.733,0.285l0.735,0.283l0.737,0.281l0.739,0.279l0.741,0.278l0.743,0.275l0.746,0.273l0.747,0.271l0.749,0.27l0.751,0.267l0.753,0.264l0.755,0.263l0.757,0.261l0.759,0.258l0.761,0.256l0.762,0.254l0.765,0.252l0.766,0.249l0.768,0.247l0.77,0.245l0.772,0.242l0.774,0.239l0.775,0.238l0.777,0.234l0.781,0.233l0.389,0.114l0.39,0.115l0.391,0.114l0.392,0.113l0.391,0.112l0.393,0.112l0.393,0.111l0.393,0.111l0.394,0.11l0.393,0.109l0.395,0.108l0.395,0.108l0.395,0.107l0.395,0.106l0.397,0.106l0.396,0.105l0.397,0.104l0.397,0.104l0.398,0.103l0.398,0.102l0.399,0.102l0.399,0.1l0.399,0.1l0.4,0.1l0.4,0.098l0.401,0.098l0.401,0.097l0.401,0.096l0.402,0.096l0.402,0.095l0.402,0.094l0.403,0.093l0.403,0.093l0.404,0.092l0.404,0.091l0.405,0.09l0.404,0.09l0.405,0.088l0.406,0.088l0.405,0.087l0.649,0.138l0.648,0.135l0.65,0.133l0.651,0.132l0.651,0.129l0.652,0.127l0.654,0.125l0.654,0.123l0.655,0.12l0.656,0.119l0.657,0.116l0.657,0.114l0.659,0.113l0.66,0.11l0.66,0.107l4.123,0.657l-1.102,6.913l-4.135,-0.659l-0.685,-0.112l-0.683,-0.114l-0.682,-0.116l-0.682,-0.118l-0.68,-0.121l-0.68,-0.122l-0.678,-0.126l-0.678,-0.127l-0.676,-0.129l-0.676,-0.132l-0.674,-0.133l-0.673,-0.136l-0.672,-0.138l-0.672,-0.14l-0.669,-0.142l-0.421,-0.09l-0.419,-0.091l-0.419,-0.092l-0.419,-0.093l-0.418,-0.093l-0.418,-0.094l-0.417,-0.095l-0.417,-0.096l-0.417,-0.096l-0.416,-0.097l-0.415,-0.099l-0.415,-0.098l-0.416,-0.1l-0.414,-0.1l-0.414,-0.101l-0.413,-0.102l-0.413,-0.103l-0.413,-0.103l-0.412,-0.104l-0.411,-0.105l-0.411,-0.106l-0.411,-0.106l-0.411,-0.107l-0.41,-0.108l-0.409,-0.108l-0.409,-0.109l-0.408,-0.11l-0.408,-0.11l-0.408,-0.112l-0.407,-0.112l-0.407,-0.112l-0.406,-0.114l-0.405,-0.114l-0.406,-0.114l-0.404,-0.116l-0.405,-0.116l-0.404,-0.117l-0.403,-0.117l-0.403,-0.118l-0.404,-0.119l-0.801,-0.239l-0.802,-0.242l-0.799,-0.244l-0.798,-0.247l-0.795,-0.25l-0.794,-0.252l-0.791,-0.254l-0.79,-0.257l-0.787,-0.259l-0.786,-0.262l-0.783,-0.263l-0.781,-0.267l-0.78,-0.268l-0.777,-0.27l-0.775,-0.273l-0.773,-0.275l-0.771,-0.277l-0.769,-0.279l-0.766,-0.281l-0.765,-0.283l-0.762,-0.285l-0.76,-0.287l-0.758,-0.289l-0.756,-0.291l-0.753,-0.293l-0.751,-0.295l-0.749,-0.296l-0.747,-0.298l-0.744,-0.3l-0.743,-0.302l-0.74,-0.303l-0.737,-0.305l-0.735,-0.307l-0.733,-0.308l-0.731,-0.31l-0.728,-0.311l-0.726,-0.313l-0.723,-0.314l-0.721,-0.316l-0.719,-0.317l-0.716,-0.319l-0.714,-0.32l-0.712,-0.321l-0.708,-0.322l-0.707,-0.324l-0.704,-0.325l-0.701,-0.326l-0.699,-0.327l-0.697,-0.329l-0.694,-0.329l-0.691,-0.331l-0.689,-0.331l-0.686,-0.333l-0.684,-0.334l-0.681,-0.334l-0.679,-0.336l-0.676,-0.336l-0.673,-0.338l-0.67,-0.338l-0.668,-0.338l-0.665,-0.34l-0.663,-0.34l-0.66,-0.341l-0.657,-0.342l-0.655,-0.343l-0.651,-0.343l-0.65,-0.343l-0.646,-0.344l-0.643,-0.345l-0.641,-0.345l-0.638,-0.346l-0.635,-0.346l-0.633,-0.346l-0.629,-0.347l-0.627,-0.347l-0.623,-0.347l-0.621,-0.348l-0.618,-0.348l-0.616,-0.348l-0.612,-0.349l-0.609,-0.348l-0.607,-0.349l-0.603,-0.348l-0.6,-0.349l-0.598,-0.349l-0.595,-0.349l-0.591,-0.348l-0.589,-0.349l-0.585,-0.349l-0.583,-0.348l-0.58,-0.349l-0.576,-0.348l-0.573,-0.348l-0.571,-0.348l-0.567,-0.347l-0.564,-0.347l-0.561,-0.347l-0.558,-0.346l-0.555,-0.346l-0.551,-0.346l-0.549,-0.345l-0.545,-0.345l-0.542,-0.344l-0.539,-0.344l-0.535,-0.343l-0.533,-0.342l-0.529,-0.342l-0.526,-0.341l-0.523,-0.341l-0.519,-0.339l-0.516,-0.339l-0.513,-0.338l-0.509,-0.337l-0.506,-0.337l-0.503,-0.336l-0.5,-0.334l-0.495,-0.334l-0.493,-0.333l-0.49,-0.332l-0.485,-0.33l-0.483,-0.33l-0.479,-0.328l-0.475,-0.328l-0.473,-0.326l-0.468,-0.325l-0.465,-0.324l-0.462,-0.323l-0.458,-0.321l-0.455,-0.32l-0.451,-0.319l-0.448,-0.317l-0.444,-0.316l-0.44,-0.315l-0.437,-0.313l-0.434,-0.311l-0.429,-0.31l-0.426,-0.309l-0.423,-0.307l-0.418,-0.305l-0.416,-0.304l-0.411,-0.301l-0.408,-0.301l-0.404,-0.298l-0.4,-0.297l-0.397,-0.295l-0.394,-0.294l-0.774,-0.58l-0.759,-0.573l-0.745,-0.565l-0.729,-0.557l-0.713,-0.549l-0.699,-0.54l-0.682,-0.531l-0.667,-0.522l-0.651,-0.513l-0.635,-0.503l-0.62,-0.493l-0.603,-0.483l-0.587,-0.473l-0.571,-0.462l-0.554,-0.451l-0.538,-0.441l-0.521,-0.429l-0.504,-0.417l-0.488,-0.406l-0.47,-0.393l-0.454,-0.382l-0.437,-0.369l-0.419,-0.356l-0.402,-0.343l-0.385,-0.33l-0.367,-0.316l-0.349,-0.302l-0.332,-0.289l-0.315,-0.275l-0.296,-0.26l-0.277,-0.245l-0.26,-0.23l-0.243,-0.216l-0.427,-0.383l-0.354,-0.32l-0.279,-0.254l-0.204,-0.188l-2.726,-2.531l4.763,-5.13l2.714,2.52Z" style="fill:#fff;"/><path d="M225.513,82.635l0.466,0.004l0.464,0.007l0.464,0.011l0.463,0.013l0.463,0.016l0.461,0.019l0.461,0.021l0.461,0.025l0.459,0.028l0.459,0.03l0.458,0.033l0.457,0.036l0.457,0.039l0.456,0.042l0.454,0.045l0.454,0.047l0.454,0.05l0.452,0.053l0.452,0.056l0.451,0.058l0.45,0.061l0.449,0.064l0.448,0.067l0.447,0.07l0.447,0.072l0.445,0.075l0.445,0.077l0.444,0.08l0.443,0.084l0.441,0.085l3.862,0.773l-1.374,6.864l-3.841,-0.769l-0.4,-0.077l-0.399,-0.075l-0.401,-0.073l-0.402,-0.07l-0.402,-0.068l-0.403,-0.065l-0.404,-0.062l-0.405,-0.061l-0.406,-0.058l-0.406,-0.055l-0.408,-0.053l-0.407,-0.05l-0.409,-0.048l-0.41,-0.045l-0.41,-0.043l-0.412,-0.04l-0.412,-0.038l-0.412,-0.035l-0.414,-0.033l-0.413,-0.03l-0.416,-0.027l-0.416,-0.025l-0.415,-0.022l-0.417,-0.02l-0.418,-0.017l-0.418,-0.015l-0.419,-0.012l-0.42,-0.009l-0.421,-0.007l-0.421,-0.004l-0.421,-0.001l-0.425,0.002l-0.424,0.004l-0.422,0.006l-0.422,0.01l-0.422,0.012l-0.421,0.014l-0.42,0.018l-0.42,0.02l-0.418,0.022l-0.418,0.025l-0.418,0.028l-0.416,0.031l-0.416,0.033l-0.415,0.035l-0.414,0.038l-0.414,0.041l-0.413,0.043l-0.412,0.046l-0.411,0.049l-0.411,0.051l-0.409,0.053l-0.409,0.056l-0.408,0.059l-0.407,0.06l-0.407,0.064l-0.405,0.066l-0.405,0.068l-0.404,0.071l-0.403,0.074l-0.402,0.076l-0.401,0.078l-0.4,0.08l-0.4,0.084l-0.398,0.085l-0.398,0.088l-0.397,0.091l-0.396,0.092l-0.395,0.095l-0.394,0.098l-0.392,0.1l-0.393,0.102l-0.391,0.105l-0.39,0.107l-0.389,0.109l-0.388,0.112l-0.388,0.114l-0.386,0.116l-0.385,0.119l-0.385,0.121l-0.383,0.123l-0.382,0.125l-0.381,0.128l-0.38,0.13l-0.379,0.133l-0.378,0.134l-0.377,0.137l-0.376,0.139l-0.375,0.141l-0.374,0.144l-0.372,0.145l-0.372,0.148l-0.37,0.151l-0.37,0.152l-0.368,0.154l-0.367,0.157l-0.365,0.159l-0.365,0.161l-0.364,0.163l-0.362,0.165l-0.361,0.168l-0.361,0.169l-0.359,0.172l-0.357,0.174l-0.356,0.176l-0.356,0.178l-0.354,0.18l-0.353,0.182l-0.351,0.184l-0.35,0.186l-0.349,0.189l-0.348,0.19l-0.347,0.193l-0.345,0.194l-0.344,0.196l-0.342,0.199l-0.342,0.2l-0.34,0.203l-0.339,0.205l-0.337,0.206l-0.336,0.209l-0.335,0.21l-0.333,0.212l-0.332,0.215l-0.331,0.216l-0.329,0.218l-0.328,0.22l-0.326,0.222l-0.325,0.224l-0.324,0.226l-0.322,0.228l-0.321,0.23l-0.319,0.231l-0.318,0.233l-0.317,0.236l-0.315,0.237l-0.313,0.239l-0.312,0.241l-0.31,0.242l-0.31,0.245l-0.307,0.246l-0.306,0.248l-0.305,0.25l-0.303,0.251l-0.301,0.254l-0.3,0.255l-0.299,0.257l-0.297,0.259l-0.295,0.26l-0.294,0.263l-0.292,0.263l-0.29,0.266l-0.289,0.267l-0.288,0.27l-0.285,0.27l-0.284,0.273l-0.283,0.274l-0.28,0.276l-0.28,0.277l-0.277,0.279l-0.276,0.281l-0.274,0.283l-0.273,0.284l-0.27,0.285l-0.269,0.288l-0.268,0.289l-0.265,0.29l-0.264,0.292l-0.263,0.294l-0.26,0.295l-0.259,0.297l-0.257,0.298l-0.255,0.3l-0.253,0.302l-0.252,0.303l-0.25,0.304l-0.248,0.307l-0.246,0.307l-0.245,0.309l-0.242,0.311l-0.241,0.312l-0.239,0.313l-0.237,0.315l-0.235,0.317l-0.234,0.318l-0.231,0.319l-0.23,0.321l-0.228,0.322l-0.226,0.324l-0.224,0.325l-0.222,0.326l-0.22,0.328l-0.218,0.329l-0.216,0.331l-0.215,0.332l-0.212,0.333l-0.21,0.335l-0.209,0.336l-0.206,0.337l-0.205,0.339l-0.202,0.34l-0.201,0.341l-0.198,0.343l-0.197,0.344l-0.194,0.345l-0.193,0.347l-0.19,0.347l-0.188,0.349l-0.187,0.351l-0.184,0.351l-0.182,0.353l-0.18,0.354l-0.178,0.355l-0.176,0.357l-0.174,0.357l-0.171,0.359l-0.17,0.36l-0.167,0.361l-0.166,0.363l-0.163,0.363l-0.161,0.365l-0.159,0.366l-0.156,0.367l-0.155,0.368l-0.152,0.369l-0.15,0.371l-0.148,0.372l-0.146,0.372l-0.143,0.374l-0.142,0.375l-0.139,0.375l-0.137,0.377l-0.134,0.378l-0.133,0.38l-0.13,0.38l-0.127,0.381l-0.126,0.382l-0.123,0.383l-0.121,0.385l-0.119,0.385l-0.116,0.386l-0.114,0.387l-0.112,0.388l-0.109,0.39l-0.107,0.39l-0.105,0.391l-0.102,0.392l-0.1,0.393l-0.097,0.394l-0.095,0.395l-0.093,0.396l-0.091,0.397l-0.088,0.397l-0.085,0.399l-0.083,0.399l-0.081,0.401l-0.078,0.401l-0.076,0.402l-0.074,0.403l-0.07,0.404l-0.069,0.405l-0.066,0.405l-0.063,0.407l-0.061,0.407l-0.059,0.408l-0.056,0.409l-0.053,0.409l-0.051,0.411l-0.048,0.411l-0.046,0.412l-0.044,0.413l-0.04,0.414l-0.039,0.414l-0.035,0.415l-0.033,0.416l-0.031,0.416l-0.027,0.418l-0.026,0.418l-0.022,0.418l-0.02,0.42l-0.017,0.42l-0.015,0.421l-0.012,0.421l-0.01,0.423l-0.006,0.423l-0.004,0.423l-0.002,0.426l0.001,0.307l0.002,0.308l0.004,0.309l0.005,0.307l0.006,0.307l0.008,0.307l0.009,0.307l0.011,0.306l0.012,0.306l0.013,0.305l0.015,0.305l0.016,0.305l0.018,0.304l0.019,0.304l0.02,0.304l0.022,0.303l0.023,0.303l0.024,0.302l0.026,0.302l0.027,0.302l0.029,0.301l0.03,0.301l0.031,0.3l0.032,0.3l0.034,0.3l0.036,0.299l0.036,0.299l0.038,0.298l0.04,0.298l0.04,0.297l0.042,0.297l0.043,0.297l0.045,0.296l0.046,0.296l0.047,0.295l0.049,0.295l0.05,0.294l0.051,0.294l0.052,0.293l0.054,0.293l0.055,0.293l0.057,0.292l0.057,0.292l0.059,0.291l0.061,0.29l0.061,0.291l0.063,0.29l0.064,0.289l0.065,0.289l0.067,0.288l0.068,0.288l0.069,0.287l0.071,0.287l0.071,0.286l0.073,0.286l0.074,0.286l0.076,0.284l0.077,0.284l0.078,0.284l0.079,0.284l0.08,0.282l0.082,0.283l0.083,0.281l0.084,0.282l0.085,0.28l0.087,0.281l0.087,0.279l0.089,0.279l0.091,0.279l0.091,0.278l0.093,0.277l0.093,0.277l0.095,0.276l0.097,0.276l0.097,0.275l0.099,0.275l0.099,0.274l0.101,0.274l0.102,0.273l0.104,0.272l0.104,0.272l0.106,0.271l0.107,0.271l0.108,0.27l0.109,0.269l0.11,0.269l0.112,0.269l0.112,0.267l0.114,0.267l0.115,0.267l0.116,0.266l0.117,0.265l0.119,0.265l0.119,0.264l0.121,0.263l0.122,0.263l0.123,0.262l0.124,0.262l0.125,0.261l0.126,0.26l0.127,0.26l0.129,0.259l0.129,0.258l0.131,0.258l0.132,0.257l0.133,0.256l0.134,0.256l0.135,0.255l0.136,0.255l0.137,0.253l0.138,0.253l0.14,0.253l0.141,0.252l0.141,0.251l0.143,0.25l0.143,0.25l0.145,0.249l0.146,0.248l0.147,0.247l0.148,0.247l0.149,0.247l0.15,0.246l0.151,0.244l0.152,0.244l0.153,0.244l0.154,0.242l0.156,0.242l0.156,0.242l0.157,0.24l0.159,0.24l0.159,0.239l0.16,0.238l0.162,0.238l0.162,0.237l0.163,0.236l0.165,0.235l0.165,0.235l0.167,0.234l0.167,0.233l0.169,0.232l0.169,0.232l0.17,0.23l0.172,0.231l0.172,0.229l0.173,0.228l0.175,0.228l0.175,0.227l0.176,0.226l0.178,0.226l0.178,0.224l0.179,0.224l0.18,0.223l0.181,0.222l0.182,0.221l0.183,0.221l0.184,0.22l0.184,0.219l0.186,0.218l0.187,0.217l0.187,0.216l0.189,0.216l0.189,0.215l0.191,0.214l0.191,0.213l0.192,0.212l0.193,0.212l0.195,0.211l0.194,0.209l0.196,0.209l0.197,0.208l0.198,0.207l0.198,0.207l0.2,0.205l0.2,0.205l0.201,0.204l0.202,0.202l0.203,0.203l0.204,0.201l0.205,0.2l0.205,0.199l0.207,0.198l0.207,0.198l0.208,0.197l0.209,0.195l0.21,0.195l0.211,0.195l0.211,0.192l0.213,0.193l0.213,0.191l0.214,0.19l0.215,0.19l0.216,0.188l0.216,0.188l0.217,0.186l0.219,0.186l0.219,0.184l0.22,0.184l0.22,0.183l0.222,0.182l0.222,0.181l0.223,0.18l0.224,0.179l0.224,0.178l0.226,0.177l0.226,0.176l0.227,0.175l0.228,0.175l0.228,0.173l0.23,0.172l0.23,0.171l0.231,0.17l0.231,0.17l0.233,0.168l0.233,0.168l0.234,0.166l0.235,0.165l0.235,0.164l0.236,0.164l0.237,0.162l0.238,0.161l0.238,0.161l0.239,0.159l0.24,0.158l0.241,0.157l0.241,0.156l0.242,0.156l0.243,0.154l0.244,0.153l0.244,0.152l0.244,0.151l0.246,0.15l0.247,0.149l0.247,0.148l0.247,0.146l0.249,0.146l0.248,0.145l0.25,0.143l0.251,0.143l0.251,0.141l0.252,0.141l0.252,0.139l0.253,0.138l0.254,0.137l0.255,0.137l0.255,0.134l0.256,0.134l0.256,0.133l0.258,0.132l0.257,0.13l0.259,0.13l0.259,0.128l0.259,0.127l0.261,0.127l0.261,0.125l0.261,0.123l3.439,1.611l-2.968,6.339l-3.453,-1.616l-0.289,-0.138l-0.289,-0.138l-0.289,-0.14l-0.287,-0.141l-0.287,-0.142l-0.286,-0.143l-0.286,-0.145l-0.284,-0.146l-0.284,-0.146l-0.283,-0.149l-0.283,-0.149l-0.281,-0.151l-0.281,-0.151l-0.281,-0.154l-0.279,-0.154l-0.279,-0.155l-0.278,-0.157l-0.277,-0.157l-0.276,-0.159l-0.276,-0.16l-0.275,-0.162l-0.275,-0.162l-0.273,-0.164l-0.272,-0.165l-0.272,-0.165l-0.271,-0.168l-0.271,-0.168l-0.269,-0.169l-0.268,-0.171l-0.268,-0.172l-0.267,-0.172l-0.266,-0.174l-0.266,-0.175l-0.265,-0.177l-0.263,-0.177l-0.263,-0.178l-0.262,-0.18l-0.261,-0.181l-0.261,-0.181l-0.26,-0.183l-0.259,-0.184l-0.257,-0.185l-0.257,-0.186l-0.257,-0.188l-0.255,-0.188l-0.255,-0.19l-0.254,-0.19l-0.252,-0.192l-0.252,-0.192l-0.252,-0.194l-0.25,-0.195l-0.249,-0.196l-0.249,-0.197l-0.247,-0.198l-0.247,-0.199l-0.246,-0.2l-0.245,-0.202l-0.244,-0.202l-0.243,-0.203l-0.242,-0.204l-0.241,-0.205l-0.241,-0.207l-0.239,-0.207l-0.239,-0.209l-0.237,-0.209l-0.237,-0.211l-0.236,-0.211l-0.235,-0.212l-0.234,-0.214l-0.233,-0.215l-0.232,-0.215l-0.231,-0.217l-0.23,-0.217l-0.23,-0.219l-0.228,-0.219l-0.227,-0.221l-0.227,-0.221l-0.225,-0.222l-0.224,-0.224l-0.224,-0.224l-0.223,-0.226l-0.221,-0.226l-0.22,-0.227l-0.22,-0.228l-0.219,-0.229l-0.217,-0.23l-0.217,-0.231l-0.215,-0.232l-0.215,-0.233l-0.214,-0.234l-0.212,-0.235l-0.212,-0.236l-0.21,-0.236l-0.21,-0.238l-0.208,-0.238l-0.208,-0.24l-0.206,-0.24l-0.206,-0.242l-0.204,-0.242l-0.203,-0.242l-0.203,-0.244l-0.201,-0.245l-0.201,-0.246l-0.199,-0.247l-0.198,-0.247l-0.197,-0.249l-0.196,-0.249l-0.195,-0.25l-0.194,-0.251l-0.193,-0.252l-0.191,-0.253l-0.191,-0.253l-0.189,-0.255l-0.189,-0.255l-0.187,-0.256l-0.186,-0.257l-0.186,-0.258l-0.184,-0.259l-0.183,-0.26l-0.182,-0.26l-0.181,-0.261l-0.179,-0.262l-0.179,-0.263l-0.177,-0.264l-0.177,-0.264l-0.175,-0.266l-0.174,-0.266l-0.173,-0.267l-0.171,-0.267l-0.171,-0.269l-0.17,-0.269l-0.168,-0.271l-0.167,-0.271l-0.166,-0.271l-0.165,-0.273l-0.164,-0.273l-0.162,-0.274l-0.162,-0.275l-0.16,-0.276l-0.159,-0.276l-0.158,-0.277l-0.157,-0.278l-0.155,-0.279l-0.154,-0.279l-0.154,-0.28l-0.152,-0.281l-0.15,-0.282l-0.15,-0.282l-0.148,-0.283l-0.147,-0.284l-0.146,-0.285l-0.145,-0.285l-0.143,-0.286l-0.142,-0.287l-0.141,-0.287l-0.14,-0.288l-0.139,-0.29l-0.137,-0.289l-0.136,-0.29l-0.135,-0.291l-0.134,-0.292l-0.132,-0.292l-0.131,-0.294l-0.13,-0.293l-0.128,-0.295l-0.128,-0.295l-0.126,-0.295l-0.124,-0.297l-0.124,-0.297l-0.122,-0.298l-0.121,-0.298l-0.12,-0.3l-0.118,-0.299l-0.117,-0.3l-0.116,-0.302l-0.114,-0.302l-0.113,-0.302l-0.112,-0.303l-0.111,-0.303l-0.109,-0.305l-0.108,-0.304l-0.106,-0.306l-0.105,-0.306l-0.104,-0.307l-0.103,-0.307l-0.101,-0.308l-0.1,-0.308l-0.099,-0.31l-0.097,-0.309l-0.096,-0.311l-0.094,-0.311l-0.093,-0.311l-0.092,-0.312l-0.091,-0.313l-0.089,-0.313l-0.087,-0.314l-0.087,-0.314l-0.085,-0.315l-0.083,-0.316l-0.082,-0.316l-0.081,-0.316l-0.08,-0.317l-0.078,-0.318l-0.076,-0.318l-0.076,-0.319l-0.073,-0.319l-0.073,-0.32l-0.071,-0.321l-0.069,-0.321l-0.068,-0.321l-0.067,-0.322l-0.065,-0.322l-0.064,-0.323l-0.063,-0.324l-0.061,-0.324l-0.059,-0.324l-0.058,-0.325l-0.057,-0.326l-0.055,-0.326l-0.054,-0.326l-0.053,-0.327l-0.05,-0.327l-0.05,-0.328l-0.048,-0.328l-0.046,-0.329l-0.045,-0.33l-0.044,-0.329l-0.042,-0.33l-0.04,-0.331l-0.039,-0.331l-0.038,-0.331l-0.036,-0.332l-0.035,-0.333l-0.033,-0.333l-0.031,-0.333l-0.03,-0.334l-0.029,-0.334l-0.027,-0.334l-0.025,-0.335l-0.024,-0.335l-0.023,-0.336l-0.021,-0.336l-0.019,-0.337l-0.018,-0.337l-0.016,-0.337l-0.015,-0.338l-0.014,-0.338l-0.011,-0.338l-0.01,-0.339l-0.009,-0.339l-0.007,-0.34l-0.006,-0.34l-0.003,-0.34l-0.003,-0.341l-0.001,-0.342l0.002,-0.467l0.004,-0.468l0.008,-0.468l0.01,-0.466l0.013,-0.466l0.017,-0.465l0.019,-0.465l0.022,-0.463l0.025,-0.464l0.028,-0.462l0.03,-0.461l0.034,-0.461l0.037,-0.46l0.039,-0.459l0.042,-0.459l0.045,-0.457l0.048,-0.457l0.051,-0.456l0.053,-0.455l0.057,-0.455l0.059,-0.453l0.062,-0.452l0.065,-0.452l0.067,-0.451l0.07,-0.45l0.073,-0.449l0.076,-0.448l0.079,-0.447l0.081,-0.446l0.084,-0.446l0.087,-0.444l0.089,-0.443l0.092,-0.443l0.095,-0.441l0.097,-0.441l0.1,-0.439l0.103,-0.438l0.106,-0.438l0.108,-0.436l0.11,-0.436l0.114,-0.434l0.116,-0.433l0.118,-0.432l0.121,-0.432l0.124,-0.43l0.126,-0.429l0.129,-0.428l0.131,-0.426l0.134,-0.426l0.137,-0.424l0.139,-0.424l0.141,-0.422l0.144,-0.421l0.147,-0.42l0.149,-0.419l0.152,-0.417l0.154,-0.416l0.156,-0.415l0.159,-0.414l0.161,-0.413l0.164,-0.411l0.166,-0.411l0.169,-0.409l0.171,-0.408l0.174,-0.406l0.176,-0.405l0.178,-0.404l0.181,-0.403l0.183,-0.401l0.185,-0.4l0.188,-0.398l0.19,-0.398l0.192,-0.396l0.195,-0.394l0.197,-0.394l0.199,-0.392l0.202,-0.39l0.204,-0.39l0.206,-0.387l0.209,-0.386l0.21,-0.385l0.214,-0.384l0.215,-0.382l0.217,-0.381l0.22,-0.379l0.222,-0.378l0.224,-0.376l0.226,-0.375l0.229,-0.373l0.23,-0.372l0.233,-0.371l0.235,-0.368l0.237,-0.367l0.24,-0.366l0.241,-0.365l0.244,-0.363l0.245,-0.361l0.248,-0.359l0.25,-0.358l0.252,-0.357l0.254,-0.355l0.256,-0.353l0.258,-0.352l0.261,-0.35l0.262,-0.348l0.264,-0.347l0.267,-0.345l0.268,-0.344l0.27,-0.341l0.273,-0.341l0.274,-0.338l0.277,-0.337l0.278,-0.335l0.28,-0.334l0.282,-0.331l0.284,-0.331l0.287,-0.328l0.288,-0.326l0.29,-0.325l0.292,-0.323l0.293,-0.322l0.296,-0.319l0.298,-0.318l0.299,-0.316l0.301,-0.314l0.304,-0.312l0.305,-0.311l0.307,-0.309l0.308,-0.306l0.311,-0.305l0.312,-0.304l0.315,-0.301l0.315,-0.299l0.318,-0.298l0.319,-0.296l0.322,-0.294l0.323,-0.292l0.325,-0.29l0.326,-0.287l0.329,-0.287l0.33,-0.284l0.331,-0.282l0.334,-0.281l0.335,-0.278l0.337,-0.276l0.339,-0.275l0.34,-0.272l0.341,-0.27l0.344,-0.269l0.345,-0.266l0.347,-0.264l0.349,-0.263l0.349,-0.26l0.352,-0.258l0.354,-0.256l0.354,-0.254l0.357,-0.252l0.358,-0.25l0.36,-0.248l0.361,-0.245l0.362,-0.244l0.365,-0.242l0.366,-0.239l0.367,-0.237l0.369,-0.235l0.37,-0.233l0.372,-0.23l0.373,-0.229l0.375,-0.226l0.376,-0.224l0.378,-0.222l0.379,-0.22l0.381,-0.218l0.383,-0.215l0.383,-0.213l0.385,-0.21l0.386,-0.209l0.388,-0.206l0.389,-0.204l0.39,-0.202l0.393,-0.199l0.393,-0.197l0.394,-0.195l0.397,-0.192l0.397,-0.19l0.398,-0.188l0.4,-0.186l0.402,-0.183l0.402,-0.18l0.404,-0.178l0.405,-0.176l0.407,-0.174l0.408,-0.171l0.409,-0.169l0.41,-0.166l0.411,-0.164l0.413,-0.161l0.414,-0.159l0.415,-0.157l0.416,-0.154l0.418,-0.151l0.418,-0.149l0.42,-0.147l0.421,-0.144l0.422,-0.141l0.424,-0.14l0.424,-0.136l0.426,-0.134l0.427,-0.131l0.428,-0.129l0.428,-0.126l0.431,-0.124l0.431,-0.121l0.432,-0.119l0.433,-0.116l0.434,-0.113l0.436,-0.111l0.436,-0.108l0.438,-0.105l0.438,-0.103l0.44,-0.1l0.44,-0.097l0.442,-0.095l0.442,-0.092l0.443,-0.09l0.445,-0.086l0.445,-0.084l0.446,-0.081l0.447,-0.079l0.448,-0.076l0.449,-0.073l0.45,-0.07l0.451,-0.068l0.452,-0.064l0.452,-0.062l0.454,-0.059l0.454,-0.057l0.455,-0.053l0.456,-0.051l0.457,-0.048l0.457,-0.045l0.459,-0.042l0.459,-0.04l0.46,-0.036l0.461,-0.034l0.462,-0.031l0.462,-0.027l0.463,-0.025l0.463,-0.022l0.465,-0.02l0.465,-0.016l0.466,-0.013l0.467,-0.011l0.467,-0.007l0.468,-0.004l0.468,-0.002l0.466,0.002Z" style="fill:#fff;"/><path d="M269.959,5.243l-98.383,301.3l-4.753,-1.552l98.383,-301.3l4.753,1.552Z" style="fill:#ff679f;"/><rect x="239.501" y="83.386" width="13.446" height="8.359" style="fill:#ff679f;fill-rule:nonzero;"/><rect x="196.749" y="217.223" width="56.198" height="8.359" style="fill:#ff679f;fill-rule:nonzero;"/><rect x="368.301" y="141.992" width="11.703" height="8.359" style="fill:#ff679f;fill-rule:nonzero;"/><rect x="368.301" y="158.616" width="11.703" height="8.359" style="fill:#ff679f;fill-rule:nonzero;"/><rect x="380.003" y="150.351" width="11.703" height="8.359" style="fill:#ff679f;fill-rule:nonzero;"/><rect x="263.301" y="100.039" width="11.703" height="8.359" style="fill:#ff679f;fill-rule:nonzero;"/><rect x="275.003" y="108.398" width="11.703" height="8.359" style="fill:#ff679f;fill-rule:nonzero;"/><rect x="275.003" y="116.757" width="11.703" height="8.359" style="fill:#ff679f;fill-rule:nonzero;"/><rect x="286.706" y="125.116" width="11.703" height="8.359" style="fill:#ff679f;fill-rule:nonzero;"/><rect x="286.706" y="133.475" width="11.703" height="8.359" style="fill:#ff679f;fill-rule:nonzero;"/><rect x="286.706" y="141.834" width="11.703" height="8.359" style="fill:#ff679f;fill-rule:nonzero;"/><rect x="286.706" y="150.193" width="11.703" height="8.359" style="fill:#ff679f;fill-rule:nonzero;"/><rect x="286.706" y="158.552" width="11.703" height="8.359" style="fill:#ff679f;fill-rule:nonzero;"/><rect x="286.706" y="166.911" width="11.703" height="8.359" style="fill:#ff679f;fill-rule:nonzero;"/><rect x="286.706" y="175.27" width="11.703" height="8.359" style="fill:#ff679f;fill-rule:nonzero;"/><rect x="275.003" y="183.629" width="11.703" height="8.359" style="fill:#ff679f;fill-rule:nonzero;"/><rect x="275.003" y="191.988" width="11.703" height="8.359" style="fill:#ff679f;fill-rule:nonzero;"/><rect x="263.301" y="200.765" width="11.703" height="8.359" style="fill:#ff679f;fill-rule:nonzero;"/><rect x="356.598" y="133.633" width="11.703" height="8.359" style="fill:#ff679f;fill-rule:nonzero;"/><rect x="356.598" y="166.975" width="11.703" height="8.359" style="fill:#ff679f;fill-rule:nonzero;"/><rect x="344.895" y="125.274" width="11.703" height="8.359" style="fill:#ff679f;fill-rule:nonzero;"/><rect x="344.895" y="175.334" width="11.703" height="8.359" style="fill:#ff679f;fill-rule:nonzero;"/><rect x="328.178" y="116.822" width="16.718" height="8.359" style="fill:#ff679f;fill-rule:nonzero;"/><rect x="328.178" y="183.787" width="16.718" height="8.359" style="fill:#ff679f;fill-rule:nonzero;"/><rect x="311.46" y="108.463" width="16.718" height="8.359" style="fill:#ff679f;fill-rule:nonzero;"/><rect x="311.46" y="192.146" width="16.718" height="8.359" style="fill:#ff679f;fill-rule:nonzero;"/><rect x="286.383" y="100.104" width="25.077" height="8.359" style="fill:#ff679f;fill-rule:nonzero;"/><rect x="286.383" y="200.505" width="25.077" height="8.359" style="fill:#ff679f;fill-rule:nonzero;"/><rect x="252.947" y="91.745" width="33.436" height="8.359" style="fill:#ff679f;fill-rule:nonzero;"/><rect x="252.947" y="208.864" width="33.436" height="8.359" style="fill:#ff679f;fill-rule:nonzero;"/></g><path d="M450.904,308.043l-448.897,0l0,-306.036l448.897,0l0,306.036Zm-443.897,-301.036l0,296.036l438.897,0l0,-296.036l-438.897,0Z" style="fill:#ff679f;"/></g></svg>