<?xml version="1.0" encoding="UTF-8" standalone="no"?><!DOCTYPE svg PUBLIC "-//W3C//DTD SVG 1.1//EN" "http://www.w3.org/Graphics/SVG/1.1/DTD/svg11.dtd"><svg width="100%" height="100%" viewBox="0 0 453 311" version="1.1" xmlns="http://www.w3.org/2000/svg" xmlns:xlink="http://www.w3.org/1999/xlink" xml:space="preserve" style="fill-rule:evenodd;clip-rule:evenodd;stroke-linejoin:round;stroke-miterlimit:1.41421;"><g><path d="M337.124,261.989l-141.948,0l0,-7l134.948,0l0,-199.547l-69.786,0l0,-7l76.786,0l0,213.547Z" style="fill:#ff679f;"/><path d="M257.87,76.304l-3.403,0l0,-7.605l5.959,0c0,2.535 -2.556,5.07 -2.556,7.605Z" style="fill:#fff;fill-rule:nonzero;"/><path d="M450.904,308.043l-448.897,0l0,-306.036l448.897,0l0,306.036Zm-443.897,-301.036l0,296.036l438.897,0l0,-296.036l-438.897,0Z" style="fill:#ff679f;"/><path d="M267.338,55.442l-132.366,0l-12.185,12.185l0,187.362l76.508,0l0,7l-83.508,0l0,-197.262l16.285,-16.285l135.266,0l0,7Z" style="fill:#fff;"/><path d="M246.161,120.938l-53.531,0l0,68.554l28.415,0l0,7l-35.415,0l0,-82.554l60.531,0l0,7Z" style="fill:#fff;"/><path d="M267.602,196.492l-49.882,0l0,-7l42.882,0l0,-68.554l-17.601,0l0,-7l24.601,0l0,82.554Z" style="fill:#ff679f;"/><rect x="139.169" y="77.696" width="8.645" height="7" style="fill:#fff;"/><rect x="305.417" y="77.696" width="8.645" height="7" style="fill:#ff679f;"/><rect x="139.169" y="147.83" width="8.645" height="7" style="fill:#fff;"/><rect x="305.417" y="147.83" width="8.645" height="7" style="fill:#ff679f;"/><path d="M234.346,76.824l-7,0l0,-8.645l7,0l0,8.645Z" style="fill:#fff;"/><rect x="139.169" y="112.763" width="8.645" height="7" style="fill:#fff;"/><rect x="305.417" y="112.763" width="8.645" height="7" style="fill:#ff679f;"/><rect x="139.169" y="182.897" width="8.645" height="7" style="fill:#fff;"/><rect x="305.417" y="182.897" width="8.645" height="7" style="fill:#ff679f;"/><path d="M199.478,76.824l-7,0l0,-8.645l7,0l0,8.645Z" style="fill:#fff;"/><path d="M199.478,242.251l-7,0l0,-8.645l7,0l0,8.645Z" style="fill:#fff;"/><rect x="139.169" y="95.23" width="8.645" height="7" style="fill:#fff;"/><rect x="305.417" y="95.23" width="8.645" height="7" style="fill:#ff679f;"/><rect x="139.169" y="165.363" width="8.645" height="7" style="fill:#fff;"/><rect x="305.417" y="165.363" width="8.645" height="7" style="fill:#ff679f;"/><path d="M216.732,76.824l-7,0l0,-8.645l7,0l0,8.645Z" style="fill:#fff;"/><rect x="210.158" y="234.429" width="8.645" height="7" style="fill:#ff679f;"/><rect x="220.881" y="234.429" width="8.645" height="7" style="fill:#ff679f;"/><rect x="231.604" y="234.429" width="8.645" height="7" style="fill:#ff679f;"/><rect x="242.327" y="234.429" width="8.645" height="7" style="fill:#ff679f;"/><rect x="274.496" y="234.429" width="8.645" height="7" style="fill:#ff679f;"/><rect x="274.496" y="69.002" width="8.645" height="7" style="fill:#ff679f;"/><rect x="253.05" y="234.429" width="8.645" height="7" style="fill:#ff679f;"/><rect x="285.219" y="234.429" width="8.645" height="7" style="fill:#ff679f;"/><rect x="285.219" y="69.002" width="8.645" height="7" style="fill:#ff679f;"/><rect x="263.773" y="234.429" width="8.645" height="7" style="fill:#ff679f;"/><rect x="263.773" y="69.002" width="8.645" height="7" style="fill:#ff679f;"/><rect x="295.942" y="234.429" width="8.645" height="7" style="fill:#ff679f;"/><rect x="295.942" y="69.002" width="8.645" height="7" style="fill:#ff679f;"/><rect x="139.169" y="130.296" width="8.645" height="7" style="fill:#fff;"/><rect x="305.417" y="130.296" width="8.645" height="7" style="fill:#ff679f;"/><path d="M251.439,76.304l-5.959,0l0,-7.605l5.959,0c0,2.535 0,5.07 0,7.605Z" style="fill:#fff;fill-rule:nonzero;"/><rect x="139.169" y="200.43" width="8.645" height="7" style="fill:#fff;"/><rect x="305.417" y="200.43" width="8.645" height="7" style="fill:#ff679f;"/><path d="M181.864,76.824l-7,0l0,-8.645l7,0l0,8.645Z" style="fill:#fff;"/><path d="M181.864,242.251l-7,0l0,-8.645l7,0l0,8.645Z" style="fill:#fff;"/><rect x="139.169" y="226.73" width="8.645" height="7" style="fill:#fff;"/><rect x="305.417" y="226.73" width="8.645" height="7" style="fill:#ff679f;"/><path d="M155.408,76.824l-7,0l0,-8.645l7,0l0,8.645Z" style="fill:#fff;"/><path d="M155.408,242.251l-7,0l0,-8.645l7,0l0,8.645Z" style="fill:#fff;"/><rect x="139.169" y="86.463" width="8.645" height="7" style="fill:#fff;"/><rect x="305.417" y="86.463" width="8.645" height="7" style="fill:#ff679f;"/><rect x="139.169" y="156.596" width="8.645" height="7" style="fill:#fff;"/><rect x="305.417" y="156.596" width="8.645" height="7" style="fill:#ff679f;"/><path d="M225.719,76.824l-7,0l0,-8.645l7,0l0,8.645Z" style="fill:#fff;"/><rect x="139.169" y="121.53" width="8.645" height="7" style="fill:#fff;"/><rect x="305.417" y="121.53" width="8.645" height="7" style="fill:#ff679f;"/><rect x="139.169" y="191.663" width="8.645" height="7" style="fill:#fff;"/><rect x="305.417" y="191.663" width="8.645" height="7" style="fill:#ff679f;"/><path d="M190.851,76.824l-7,0l0,-8.645l7,0l0,8.645Z" style="fill:#fff;"/><path d="M190.851,242.251l-7,0l0,-8.645l7,0l0,8.645Z" style="fill:#fff;"/><rect x="139.169" y="217.963" width="8.645" height="7" style="fill:#fff;"/><rect x="305.417" y="217.963" width="8.645" height="7" style="fill:#ff679f;"/><path d="M164.394,76.824l-7,0l0,-8.645l7,0l0,8.645Z" style="fill:#fff;"/><path d="M164.394,242.251l-7,0l0,-8.645l7,0l0,8.645Z" style="fill:#fff;"/><rect x="139.169" y="103.996" width="8.645" height="7" style="fill:#fff;"/><rect x="305.417" y="103.996" width="8.645" height="7" style="fill:#ff679f;"/><rect x="139.169" y="174.13" width="8.645" height="7" style="fill:#fff;"/><rect x="305.417" y="174.13" width="8.645" height="7" style="fill:#ff679f;"/><path d="M208.105,76.824l-7,0l0,-8.645l7,0l0,8.645Z" style="fill:#fff;"/><path d="M205.796,241.731l-4.17,0l0,-7.605l5.959,0c0,0.468 0,0.936 0,1.404c0,2.067 -1.789,4.134 -1.789,6.201Z" style="fill:#fff;fill-rule:nonzero;"/><rect x="139.169" y="139.063" width="8.645" height="7" style="fill:#fff;"/><rect x="305.417" y="139.063" width="8.645" height="7" style="fill:#ff679f;"/><path d="M243.333,76.824l-7,0l0,-8.645l7,0l0,8.645Z" style="fill:#fff;"/><rect x="139.169" y="209.197" width="8.645" height="7" style="fill:#fff;"/><rect x="305.417" y="209.197" width="8.645" height="7" style="fill:#ff679f;"/><path d="M173.237,76.824l-7,0l0,-8.645l7,0l0,8.645Z" style="fill:#fff;"/><path d="M173.237,242.251l-7,0l0,-8.645l7,0l0,8.645Z" style="fill:#fff;"/><path d="M286.248,5.439l-98.319,301.104l-4.753,-1.552l98.319,-301.104l4.753,1.552Z" style="fill:#ff679f;"/></g></svg>